<svg id="Layer_1" data-name="Layer 1" xmlns="http://www.w3.org/2000/svg" viewBox="0 0 966.65 482.11">
<defs>
<style>
@keyframes floating {
    from { transform: translate(0,  0px); }
    65%  { transform: translate(0, 15px); }
    to   { transform: translate(0, -0px); }    
}

@keyframes floating2 {
    from { transform: translate(0,  0px); }
    65%  { transform: translate(0, -6px); }
    to   { transform: translate(0, 0px); }    
}


.cls-1{
     fill:#fff;
      -webkit-animation: floating2 3s ease infinite;
     -moz-animation: floating2  3s ease infinite;
     animation: floating2  3s ease infinite;
}


.cls-2{
     fill:#fff;
     -webkit-animation: floating 3s ease infinite;
	 -moz-animation: floating  3s ease infinite;
     animation: floating  3s ease infinite;

}

.cls-3{
     fill:#fff;
     -webkit-animation: floating 2.7s ease infinite;
	 -moz-animation: floating  2.7s ease infinite;
     animation: floating  2.7s ease infinite;

}

</style>
</defs>

<title>logo-2</title>
<path class="cls-1" d="M131.39,157.44c-4.55,12.25-9.62,24.34-13.54,36.79-6.72,21.33-10.13,43.21-6.16,65.55,7.18,40.4,39.5,66.72,81.73,67.3,22.86.32,45.22-3.54,67.23-8.74q80.66-19.08,160.94-39.65c59.78-15.46,119.31-31.88,179-47.89a6.25,6.25,0,0,0,3.17-1.77H507.15c-2.71-30.23-5.38-60-8.16-91.09-1.07,2.09-1.7,3.11-2.13,4.2-10.86,27.21-21.78,54.39-32.46,81.67-1.49,3.81-3.3,5.25-7.54,5.17-15.16-.3-30.33-.12-45.49-.12h-5.65c2.51-6.39,4.73-12.08,7-17.75Q453.56,108.58,494.3,6c1.84-4.65,4.07-6.15,9-6,14.83.37,29.66.13,44.5.13h5.57c-9,22.56-17.65,44.41-26.33,66.26l.89.52Q541.48,52,555,37c10.16-11.26,20.21-22.61,30.52-33.73a9.77,9.77,0,0,1,6.25-3Q675,0,758.25.15c.94,0,1.88.14,3.49.26-2.4,6.12-4.6,11.8-6.84,17.47-2.64,6.66-5.49,13.24-7.89,20-1.18,3.32-2.85,4.56-6.48,4.51-15-.21-30,0-45-.16-3.61-.05-5.21,1.18-6.47,4.5C684,60.07,678.54,73.32,673.24,86.62c-.48,1.2-.85,2.46-1.47,4.28h53.9c-2.5,6.38-4.71,12-6.95,17.71-2.51,6.35-5.27,12.61-7.49,19-1.18,3.41-2.88,4.52-6.47,4.47-15.17-.21-30.33-.17-45.49,0-1.73,0-4.45,1.18-5,2.51-6.88,16.58-13.45,33.29-20.37,50.62H701l-7.78,20.35L966.36,130.8l.29.63a16,16,0,0,1-2.16,1.37q-137,59.3-274.09,118.57Q519,325.56,347.61,399.83c-39.41,17.08-78.53,34.84-118.2,51.3-37.5,15.56-76.26,27.09-117,30.31-16,1.27-32,.94-47.72-2.75C29.51,470.44,9.23,447.86,2.39,413c-5.08-26-1.66-51.38,6.49-76.31,11.88-36.35,31.24-68.7,53.44-99.48a643,643,0,0,1,63.44-74.53c1.83-1.85,3.42-3.94,5.13-5.92Zm428.3,69.12,1.08.14,89-223.2a2.62,2.62,0,0,0-2.26.79q-48,53.27-95.93,106.63c-1.2,1.35-1.69,3.91-1.54,5.82,1.72,21.08,3.62,42.15,5.49,63.22Q557.57,203.27,559.69,226.56Z"/>
<path class="cls-1" d="M237.58,228.59V132.13l-1.05-.21c-2.44,6.08-4.91,12.16-7.34,18.25q-14.91,37.34-29.78,74.67c-.88,2.2-1.44,4.13-4.64,4.1-17.16-.17-34.33-.09-51.49-.13a8,8,0,0,1-1.78-.56c4.63-11.68,9.19-23.25,13.8-34.8q37.53-94.14,75-188.32c1.54-3.88,3.39-5.15,7.54-5.1,18.15.25,36.31.11,55.06.11V95.52l1,.23c.65-1.4,1.36-2.77,1.92-4.19C307.37,62.65,319,33.76,330.32,4.78c1.36-3.46,3-4.8,6.83-4.75,17,.21,33.9.09,51.58.09-1.7,4.44-3.11,8.29-4.63,12.1q-42.25,106-84.43,212c-1.51,3.83-3.36,4.82-7.25,4.77-16.49-.23-33-.08-49.48-.1C241.32,228.85,239.71,228.7,237.58,228.59Z"/>
<path class="cls-1" d="M471.13.14c-5.07,12.75-9.72,24.47-14.39,36.18q-37.25,93.45-74.38,187c-1.77,4.47-4,5.79-8.66,5.71-16.47-.3-32.94-.12-50-.12.62-1.8,1-3.17,1.55-4.49Q368.9,114.68,412.49,5c1.45-3.65,3.18-5,7.19-4.92,15.33.27,30.66.11,46,.11Z"/>
<path class="cls-3" d="M626.08,357.11c-.23,1.19-.45,2.35-.65,3.48a21.15,21.15,0,0,1-.9,3.32,24,24,0,0,1-1.45,3.21,20,20,0,0,1-2.18,3.17,15.73,15.73,0,0,1-5.76,4.42,16.59,16.59,0,0,1-6.8,1.45,10.48,10.48,0,0,1-5.39-1.45,14.11,14.11,0,0,1-4.07-3.45l7.66-7.46a4.65,4.65,0,0,0,1.18,2.28,2.86,2.86,0,0,0,2.21,1.11,3.68,3.68,0,0,0,3-1.39,10.31,10.31,0,0,0,1.79-3.27,22.58,22.58,0,0,0,1-3.91c.21-1.33.38-2.41.52-3.24l5.11-32.66h10.15Z"/>
<path class="cls-2" d="M645,340.88l-2.9,18.37c-.14,1-.23,1.95-.28,3a8.66,8.66,0,0,0,.28,2.73,3.89,3.89,0,0,0,1.31,2,4.38,4.38,0,0,0,2.83.8,5.51,5.51,0,0,0,3.08-.8,6.34,6.34,0,0,0,2-2,10.62,10.62,0,0,0,1.21-2.73,21.12,21.12,0,0,0,.66-3l2.9-18.37h9.66l-3.17,19.95q-1.17,7.46-5.59,11.26t-12,3.8q-7.59,0-10.77-3.8t-2-11.26l3.17-19.95Z"/>
<path class="cls-3" d="M688.57,348.89a9,9,0,0,0-2.07-1.66,5.11,5.11,0,0,0-2.63-.69,3.92,3.92,0,0,0-2.31.83,3.15,3.15,0,0,0-1.35,2.07,2,2,0,0,0,.35,1.59,4.67,4.67,0,0,0,1.41,1.14,16.64,16.64,0,0,0,2.11,1c.78.3,1.56.64,2.35,1a14.93,14.93,0,0,1,2.38,1.31,7.27,7.27,0,0,1,1.93,1.9,7.52,7.52,0,0,1,1.14,2.72,10.48,10.48,0,0,1,0,3.8,12.39,12.39,0,0,1-1.83,5,14.23,14.23,0,0,1-3.48,3.77,16.21,16.21,0,0,1-4.6,2.38,16.61,16.61,0,0,1-5.21.83,13.72,13.72,0,0,1-6.35-1.49,12.3,12.3,0,0,1-4.7-4.18l5.39-5.73a12.43,12.43,0,0,0,2.8,2.76,6.19,6.19,0,0,0,3.76,1.18,4.49,4.49,0,0,0,2.86-1,4.13,4.13,0,0,0,1.56-2.66,2.39,2.39,0,0,0-.28-1.83,4.58,4.58,0,0,0-1.34-1.28,11.77,11.77,0,0,0-2-1c-.76-.3-1.53-.63-2.31-1a22.89,22.89,0,0,1-2.28-1.24,7.13,7.13,0,0,1-1.9-1.73,6.88,6.88,0,0,1-1.17-2.45,8.39,8.39,0,0,1,0-3.49,14.69,14.69,0,0,1,1.52-4.38,12.53,12.53,0,0,1,2.77-3.49,13.11,13.11,0,0,1,3.72-2.28,12,12,0,0,1,4.49-.83,20,20,0,0,1,2.8.21,16.76,16.76,0,0,1,2.86.66,15,15,0,0,1,2.59,1.1,9.1,9.1,0,0,1,2.11,1.56Z"/>
<path class="cls-2" d="M706.24,374.78h-9.66L700.65,349h-3.31l1.31-8.15H702l1.8-11.46h9.66l-1.79,11.46h5.94L716.26,349h-5.94Z"/>
<path class="cls-3" d="M742.77,322.72h14.5a23.58,23.58,0,0,1,10,2,19.26,19.26,0,0,1,7.07,5.49,20.25,20.25,0,0,1,3.83,8.25,27.33,27.33,0,0,1,.18,10.36,31.73,31.73,0,0,1-3.49,10.25,30.26,30.26,0,0,1-15.33,13.71,27.83,27.83,0,0,1-10.53,2H734.55Zm3.31,43.22h1.66a24.31,24.31,0,0,0,8.18-1.24,17.22,17.22,0,0,0,5.94-3.49,16.61,16.61,0,0,0,3.9-5.42,26.9,26.9,0,0,0,2.07-7q1.38-8.56-2.28-12.88t-12.36-4.31h-1.65Z"/>
<path class="cls-2" d="M799.87,339.77a17.29,17.29,0,0,1,7,1.35,13.35,13.35,0,0,1,5,3.73,13.93,13.93,0,0,1,2.76,5.73,18.59,18.59,0,0,1,.17,7.28,21.74,21.74,0,0,1-2.45,7.25,20.91,20.91,0,0,1-4.56,5.7,20.6,20.6,0,0,1-13.7,5.08,17.17,17.17,0,0,1-7-1.35,13.4,13.4,0,0,1-5-3.73,13.63,13.63,0,0,1-2.73-5.7,19.23,19.23,0,0,1-.14-7.25,22.46,22.46,0,0,1,2.46-7.28,20.55,20.55,0,0,1,18.19-10.81Zm-1.31,8.57a7.45,7.45,0,0,0-3.49.83,9.94,9.94,0,0,0-2.86,2.17,12.67,12.67,0,0,0-2.08,3.07,12.46,12.46,0,0,0-1.1,3.45,10.33,10.33,0,0,0,0,3.42,8.25,8.25,0,0,0,1.1,3,6.68,6.68,0,0,0,2.18,2.18,6,6,0,0,0,3.21.82,7.63,7.63,0,0,0,3.49-.82,10.3,10.3,0,0,0,2.86-2.18,12.56,12.56,0,0,0,2.07-3,11.9,11.9,0,0,0,1.11-3.42,11.09,11.09,0,0,0,0-3.45,8.28,8.28,0,0,0-1.11-3.07,6.44,6.44,0,0,0-2.17-2.17A6,6,0,0,0,798.56,348.34Z"/>
<path class="cls-3" d="M847.1,374.78H837l8.21-52.06h10.15Z"/>
<path class="cls-2" d="M865.05,374.78h-9.67L859.46,349h-3.32l1.31-8.15h3.32l1.79-11.46h9.67l-1.8,11.46h5.94L875.06,349h-5.94Z"/></svg>