<svg id="Layer_1" data-name="Layer 1" xmlns="http://www.w3.org/2000/svg" viewBox="0 0 966.65 482.11"><defs><style>.cls-1{fill:#fff;}</style></defs><title>logo</title><path class="cls-1" d="M131.39,157.44c-4.55,12.25-9.62,24.34-13.54,36.79-6.72,21.33-10.13,43.21-6.16,65.55,7.18,40.4,39.5,66.72,81.73,67.3,22.86.32,45.22-3.54,67.23-8.74q80.66-19.08,160.94-39.65c59.78-15.46,119.31-31.88,179-47.89a6.25,6.25,0,0,0,3.17-1.77H507.15c-2.71-30.23-5.38-60-8.16-91.09-1.07,2.09-1.7,3.11-2.13,4.2-10.86,27.21-21.78,54.39-32.46,81.67-1.49,3.81-3.3,5.25-7.54,5.17-15.16-.3-30.33-.12-45.49-.12h-5.65c2.51-6.39,4.73-12.08,7-17.75Q453.56,108.58,494.3,6c1.84-4.65,4.07-6.15,9-6,14.83.37,29.66.13,44.5.13h5.57c-9,22.56-17.65,44.41-26.33,66.26l.89.52Q541.48,52,555,37c10.16-11.26,20.21-22.61,30.52-33.73a9.77,9.77,0,0,1,6.25-3Q675,0,758.25.15c.94,0,1.88.14,3.49.26-2.4,6.12-4.6,11.8-6.84,17.47-2.64,6.66-5.49,13.24-7.89,20-1.18,3.32-2.85,4.56-6.48,4.51-15-.21-30,0-45-.16-3.61-.05-5.21,1.18-6.47,4.5C684,60.07,678.54,73.32,673.24,86.62c-.48,1.2-.85,2.46-1.47,4.28h53.9c-2.5,6.38-4.71,12-6.95,17.71-2.51,6.35-5.27,12.61-7.49,19-1.18,3.41-2.88,4.52-6.47,4.47-15.17-.21-30.33-.17-45.49,0-1.73,0-4.45,1.18-5,2.51-6.88,16.58-13.45,33.29-20.37,50.62H701l-7.78,20.35L966.36,130.8l.29.63a16,16,0,0,1-2.16,1.37q-137,59.3-274.09,118.57Q519,325.56,347.61,399.83c-39.41,17.08-78.53,34.84-118.2,51.3-37.5,15.56-76.26,27.09-117,30.31-16,1.27-32,.94-47.72-2.75C29.51,470.44,9.23,447.86,2.39,413c-5.08-26-1.66-51.38,6.49-76.31,11.88-36.35,31.24-68.7,53.44-99.48a643,643,0,0,1,63.44-74.53c1.83-1.85,3.42-3.94,5.13-5.92Zm428.3,69.12,1.08.14,89-223.2a2.62,2.62,0,0,0-2.26.79q-48,53.27-95.93,106.63c-1.2,1.35-1.69,3.91-1.54,5.82,1.72,21.08,3.62,42.15,5.49,63.22Q557.57,203.27,559.69,226.56Z"/><path class="cls-1" d="M237.58,228.59V132.13l-1.05-.21c-2.44,6.08-4.91,12.16-7.34,18.25q-14.91,37.34-29.78,74.67c-.88,2.2-1.44,4.13-4.64,4.1-17.16-.17-34.33-.09-51.49-.13a8,8,0,0,1-1.78-.56c4.63-11.68,9.19-23.25,13.8-34.8q37.53-94.14,75-188.32c1.54-3.88,3.39-5.15,7.54-5.1,18.15.25,36.31.11,55.06.11V95.52l1,.23c.65-1.4,1.36-2.77,1.92-4.19C307.37,62.65,319,33.76,330.32,4.78c1.36-3.46,3-4.8,6.83-4.75,17,.21,33.9.09,51.58.09-1.7,4.44-3.11,8.29-4.63,12.1q-42.25,106-84.43,212c-1.51,3.83-3.36,4.82-7.25,4.77-16.49-.23-33-.08-49.48-.1C241.32,228.85,239.71,228.7,237.58,228.59Z"/><path class="cls-1" d="M471.13.14c-5.07,12.75-9.72,24.47-14.39,36.18q-37.25,93.45-74.38,187c-1.77,4.47-4,5.79-8.66,5.71-16.47-.3-32.94-.12-50-.12.62-1.8,1-3.17,1.55-4.49Q368.9,114.68,412.49,5c1.45-3.65,3.18-5,7.19-4.92,15.33.27,30.66.11,46,.11Z"/></svg>