<svg id="Layer_1" data-name="Layer 1" xmlns="http://www.w3.org/2000/svg" viewBox="0 0 287.48 283.97"><defs><style>.cls-1,.cls-2{fill:none;stroke:#0c24fb;stroke-miterlimit:10;}.cls-1{stroke-width:1px;}.cls-2{stroke-width:0.99px;}</style></defs><title>FONT</title><rect class="cls-1" x="18.84" y="19.86" width="231.24" height="244.25"/><path class="cls-2" d="M122.78,44.94V57.46a2.45,2.45,0,0,1-.74,1.77,2.42,2.42,0,0,1-1.79.75,2.38,2.38,0,0,1-1.76-.75,2.45,2.45,0,0,1-.74-1.77V44.94h-5V55.77l3.79,6.56a4.93,4.93,0,0,0,1.23.15h2.5c1.49,0,2.33-.83,2.53-2.5v2.5h5V44.94Z"/><path class="cls-2" d="M95.13,39.92v5h-5a5.4,5.4,0,0,0-1.15.13L85.2,48.82a5.13,5.13,0,0,0-.12,1.12v7.52a4.93,4.93,0,0,0,.15,1.23l3.64,3.64a4.93,4.93,0,0,0,1.23.15h2.5c1.48,0,2.33-.83,2.53-2.5v2.5h4.74V39.92Zm0,17.54A2.55,2.55,0,0,1,92.67,60a2.37,2.37,0,0,1-1.83-.75,2.45,2.45,0,0,1-.74-1.77V49.94a2.53,2.53,0,0,1,2.5-2.5h0A2.53,2.53,0,0,1,95.13,50Z"/><path class="cls-2" d="M59.33,45a5.36,5.36,0,0,0-1-.09H55.85a5.28,5.28,0,0,0-2.23.44l-.21.11-1.32,1.24v0a4.21,4.21,0,0,0-3.75-1.77h-2.2L43.2,47.65l0-2.71H38.31V62.48h5V50a2.53,2.53,0,0,1,2.52-2.52A2.54,2.54,0,0,1,48.34,50V62.48h5V50a2.53,2.53,0,0,1,2.51-2.52,2.36,2.36,0,0,1,1.75.75A2.4,2.4,0,0,1,58.34,50V62.48h5V50a5.28,5.28,0,0,0-.09-1Z"/><path class="cls-2" d="M152.48,45a5.36,5.36,0,0,0-1-.09H149a5.25,5.25,0,0,0-2.23.44l-.22.11-1.31,1.24v0a4.24,4.24,0,0,0-3.76-1.77h-2.19l-2.94,2.71,0-2.71h-4.92V62.48h5V50a2.46,2.46,0,0,1,.74-1.78,2.42,2.42,0,0,1,1.77-.74,2.45,2.45,0,0,1,1.77.74,2.42,2.42,0,0,1,.74,1.78V62.48h5V50a2.5,2.5,0,0,1,5,0V62.48h5V50a5.28,5.28,0,0,0-.09-1Z"/><path class="cls-2" d="M104.23,62.48V46.55h4.82V62.48Z"/><path class="cls-2" d="M106.42,39.92a2.36,2.36,0,0,0-2.19,2.35h0a2.35,2.35,0,0,0,2.35,2.35h0a2.34,2.34,0,0,0,2.35-2.19Z"/><path class="cls-2" d="M79.14,58.28A2.14,2.14,0,0,1,76.72,60H74.19a2.38,2.38,0,0,1-1.76-.75,2.44,2.44,0,0,1-.73-1.77V55H72v0h9.74v-5a5,5,0,0,0-5-5h-5a6.49,6.49,0,0,0-.78.06l-4.19,4.19a4.56,4.56,0,0,0-.06.75v7.52a6,6,0,0,0,.07.85l4.11,4.1a5.73,5.73,0,0,0,.85.07h5c2.7,0,4.31-1.4,4.86-4.2ZM71.7,49.94a2.51,2.51,0,0,1,5,0v2.52h-5Z"/><path class="cls-2" d="M90.16,147.33v-23h5.1v11.48l5.59-6.37h5.62l-8.09,8.91,8.09,8.93h-5.62L95.26,141v6.36Z"/><path class="cls-2" d="M85.18,129.49a5.78,5.78,0,0,0-2.16.38l-2.94,4.64s0,0,0,.06v0l-.06.1.06-5.13H75v17.84h5.11V137.14a2.48,2.48,0,0,1,.75-1.82,2.43,2.43,0,0,1,1.79-.75h5.11v-5.08Z"/><path class="cls-2" d="M48.53,124.38v5.11H43.42a4.93,4.93,0,0,0-1.17.14l-3.81,3.81a5.22,5.22,0,0,0-.13,1.13v7.65a5.18,5.18,0,0,0,.16,1.26l3.7,3.69a5.1,5.1,0,0,0,1.25.16H46c1.51,0,2.37-.85,2.57-2.54v2.54h4.82v-23Zm0,17.84A2.58,2.58,0,0,1,46,144.79a2.45,2.45,0,0,1-1.87-.76,2.51,2.51,0,0,1-.75-1.81v-7.65A2.56,2.56,0,0,1,46,132h0a2.57,2.57,0,0,1,2.57,2.57Z"/><path class="cls-2" d="M69.61,131a4.9,4.9,0,0,0-3.58-1.5H63.46c-3,0-4.7,1.7-5.11,5.08h2.57c.18-1.69,1-2.54,2.54-2.54a2.48,2.48,0,0,1,1.82.75,2.45,2.45,0,0,1,.75,1.79v2.57H60.92a4.94,4.94,0,0,0-3.6,1.5A4.89,4.89,0,0,0,56,141l3.52,6.1a5.24,5.24,0,0,0,1.45.2h2.54c1.51,0,2.36-.85,2.57-2.54v2.54h5.08V134.57A4.9,4.9,0,0,0,69.61,131Zm-4.33,13a2.54,2.54,0,0,1-1.75.76,2.45,2.45,0,0,1-1.86-.76,2.51,2.51,0,0,1-.75-1.81,2.56,2.56,0,0,1,2.54-2.54h0A2.54,2.54,0,0,1,66,142.22,2.51,2.51,0,0,1,65.28,144Z"/><path class="cls-2" d="M38.31,232.72V209.24h5.23v23.48Z"/><path class="cls-2" d="M87.46,214.48l-.4,0H84.43a2.5,2.5,0,0,0-1.79.64,3.17,3.17,0,0,0-.81,2v-7.83h-5v23.49h5V219.66a2.46,2.46,0,0,1,.77-1.83,2.5,2.5,0,0,1,1.83-.77,2.54,2.54,0,0,1,1.86.77,2.5,2.5,0,0,1,.77,1.83v13.06h5.2V219.66c0-.13,0-.27,0-.4Z"/><path class="cls-2" d="M72.27,235.92a5.64,5.64,0,0,0,.08-.93V214.13H61.93a5,5,0,0,0-1.11.12l-4,4a5.22,5.22,0,0,0-.1,1.06v7.83a6,6,0,0,0,.08,1L61,232.31a6,6,0,0,0,1,.08h2.59c1.55,0,2.43-.87,2.63-2.6V235a2.61,2.61,0,0,1-2.63,2.63H61.93c-1.61,0-2.48-.88-2.6-2.63H56.7c.41,3.49,2.16,5.23,5.23,5.23h5.22a5.29,5.29,0,0,0,.9-.08ZM66.39,229a2.63,2.63,0,0,1-1.79.78,2.49,2.49,0,0,1-1.91-.78,2.55,2.55,0,0,1-.76-1.85v-7.83a2.61,2.61,0,0,1,2.59-2.6h0a2.63,2.63,0,0,1,2.63,2.63v7.8A2.55,2.55,0,0,1,66.39,229Z"/><path class="cls-2" d="M47.17,232.72V216.14h5v16.58Z"/><path class="cls-2" d="M49.45,209.24a2.46,2.46,0,0,0-2.28,2.44h0a2.45,2.45,0,0,0,2.45,2.45h0a2.43,2.43,0,0,0,2.44-2.28Z"/><polygon class="cls-2" points="102.71 227.82 102.71 220.54 102.71 217.33 105.32 217.33 105.32 214.47 102.71 214.47 102.71 209.24 102.69 209.24 102.69 209.24 97.49 209.24 97.49 209.24 97.48 209.24 97.48 214.47 94.86 214.47 94.86 217.33 97.48 217.33 97.48 232.72 102.69 232.72 102.69 232.72 102.71 232.72 102.71 227.82"/></svg>