<svg id="Layer_1" data-name="Layer 1" xmlns="http://www.w3.org/2000/svg" viewBox="0 0 367.26 344.71">
<defs>
<style>

@keyframes fill{
    from {
      <!-- left:-170%; -->
      fill:#0c24fb;
    }
    to{
      <!-- left:-30%; -->
      fill:none;
      stroke:#0c24fb;
      stroke-miterlimit:10;
      stroke-width:1.3px;
      
    }
}

.cls-1,.cls-2{
   fill:none;
   stroke:#0c24fb;
   stroke-miterlimit:10;
}

.cls-1{
   stroke-width:0.99px;
   animation: fill 2s infinite;
}

.cls-2{
  stroke-width:1.04px;
}

</style>
</defs>

<title>FONT</title>
<path class="cls-1" d="M322.12,269.12l-4.81-4.81a4.21,4.21,0,0,1,4.16-3.57h0c-.1-2.72-1.52-4.13-4.24-4.24v-4.2q8.44.93,8.44,8.44V265A4.21,4.21,0,0,1,322.12,269.12Z"/>
<path class="cls-1" d="M334.46,269.12l-4.81-4.81a4.21,4.21,0,0,1,4.16-3.57h0c-.1-2.72-1.52-4.13-4.24-4.24v-4.2q8.45.93,8.44,8.44V265A4.21,4.21,0,0,1,334.46,269.12Z"/>
<path class="cls-1" d="M45.13,55.26,50,50.44a4.23,4.23,0,0,0-4.17-3.57h0q.16-4.08,4.24-4.24v-4.2q-8.43.95-8.44,8.44v4.22A4.22,4.22,0,0,0,45.13,55.26Z"/>
<path class="cls-1" d="M32.79,55.26l4.82-4.82a4.23,4.23,0,0,0-4.17-3.57h0q.16-4.08,4.24-4.24v-4.2q-8.43.95-8.44,8.44v4.22A4.22,4.22,0,0,0,32.79,55.26Z"/>
<path class="cls-1" d="M191.08,194.81h0a14.25,14.25,0,0,0,.12-1.74A15.4,15.4,0,0,0,190,187c-.81-1.88-3.89-4.26-9.22-7.11q-9.79-5.27-9.79-8.17a5,5,0,0,1,1.78-4.16,8.43,8.43,0,0,1,5.34-1.42q5.49,0,6.39,6.71h6.71q-.81-13.43-13.51-13.42H171a13.71,13.71,0,0,0-2.59.24l-10.68,10.67a14.59,14.59,0,0,0-.23,2.59,14.76,14.76,0,0,0,1.25,6.07q1.26,2.84,9.26,7.11,9.78,5.26,9.78,8.09a5.12,5.12,0,0,1-1.77,4.25,8.67,8.67,0,0,1-5.42,1.41q-5.51,0-6.31-6.79h-6.79q0,13.5,13.5,13.5h6.71a14.13,14.13,0,0,0,1.74-.11Z"/>
<path class="cls-1" d="M79.93,163.15v-4.36c0-6.14,8.25-6.14,8.25-6.14v-6.72H82.09a13.21,13.21,0,0,0-3.19.4l-9.67,16.74v.08H62.44v8.08h6.79v35.35h10.7V171.23h9.52v-8.08Z"/>
<path class="cls-1" d="M145.07,159.44a15.43,15.43,0,0,0-5.7,1l-7.78,12.26,0,.17v-.13l-.16.26.16-13.55h-13.5v47.14h13.5V179.65a6.56,6.56,0,0,1,2-4.81,6.46,6.46,0,0,1,4.73-2h13.51V159.44Z"/>
<path class="cls-1" d="M95.71,206.58V163.76h13v42.82Z"/><path class="cls-1" d="M101.61,146a6.31,6.31,0,0,0-5.9,6.3h0a6.32,6.32,0,0,0,6.33,6.33h0a6.31,6.31,0,0,0,6.3-5.9Z"/>
<polygon class="cls-1" points="215.75 193.93 215.75 175.12 215.75 166.83 222.5 166.83 222.5 159.44 215.75 159.44 215.75 145.93 215.7 145.93 215.7 145.93 202.28 145.93 202.28 145.93 202.24 145.93 202.24 159.44 195.49 159.44 195.49 166.83 202.24 166.83 202.24 206.58 215.7 206.58 215.7 206.58 215.75 206.58 215.75 193.93"/>
<path class="cls-1" d="M138.35,60.35V94a6.6,6.6,0,0,1-2,4.77,6.47,6.47,0,0,1-4.81,2,6.39,6.39,0,0,1-4.73-2,6.6,6.6,0,0,1-2-4.77V60.35h-13.5v29.1l10.18,17.63a13.36,13.36,0,0,0,3.32.41h6.71q6,0,6.79-6.71v6.71h13.43V60.35Z"/>
<polygon class="cls-1" points="180.67 94.84 180.67 76.03 180.67 67.75 187.42 67.75 187.42 60.35 180.67 60.35 180.67 46.85 180.63 46.85 180.63 46.85 167.2 46.85 167.2 46.85 167.16 46.85 167.16 60.35 160.41 60.35 160.41 67.75 167.16 67.75 167.16 107.5 180.62 107.5 180.63 107.5 180.67 107.5 180.67 94.84"/>
<path class="cls-1" d="M101.86,70.8,91.74,60.68a13.74,13.74,0,0,0-3-.33H82A6.3,6.3,0,0,0,77.36,62a8.2,8.2,0,0,0-2.1,5.05V46.85H62.44v60.64H88.76a13.63,13.63,0,0,0,2.59-.24l10.59-10.58a14.68,14.68,0,0,0,.25-2.68V73.77A13.72,13.72,0,0,0,101.86,70.8ZM88.76,94a6.6,6.6,0,0,1-2.12,4.91,6.76,6.76,0,0,1-4.74,1.88,6.64,6.64,0,0,1-6.64-6.64V73.77A6.76,6.76,0,0,1,82,67.06a6.54,6.54,0,0,1,4.81,2,6.48,6.48,0,0,1,2,4.73Z"/>
<path class="cls-1" d="M88.93,290q-1.46,4.41-6.28,4.41a6.39,6.39,0,0,1-4.73-2,6.6,6.6,0,0,1-2-4.77V267.42a6.76,6.76,0,0,1,6.71-6.71,6.07,6.07,0,0,1,6.44,4.9H96Q94.54,254,82.65,254H75.94a13.78,13.78,0,0,0-2.9.31l.09.08L62.68,264.84a13.6,13.6,0,0,0-.24,2.58v20.22a13.36,13.36,0,0,0,.56,3.94l9,9a13.54,13.54,0,0,0,4,.57h6.71q11.52,0,13.24-11.12Z"/>
<path class="cls-1" d="M142,291.5a13.2,13.2,0,0,0,.55-3.86V267.42a14.19,14.19,0,0,0-.28-2.79l-10.35-10.35a14.22,14.22,0,0,0-2.8-.28h-13.5a13.67,13.67,0,0,0-2.5.23l0,0-10.85,10.86a13.18,13.18,0,0,0-.2,2.29v20.22a13.7,13.7,0,0,0,.4,3.31l9.78,9.78a13.36,13.36,0,0,0,3.32.41h13.5a13.63,13.63,0,0,0,3.77-.52Zm-12.88-3.86a6.6,6.6,0,0,1-2,4.77,6.47,6.47,0,0,1-4.81,2,6.39,6.39,0,0,1-4.73-2,6.6,6.6,0,0,1-2-4.77V267.42a6.76,6.76,0,0,1,6.71-6.71,6.54,6.54,0,0,1,4.81,2,6.46,6.46,0,0,1,2,4.73Z"/>
<path class="cls-1" d="M167.15,257.71v-4.36c0-6.14,8.26-6.14,8.26-6.14V240.5h-6.1a12.85,12.85,0,0,0-3.19.4l-9.67,16.74v.07h-6.79v8.08h6.79v35.35h10.7V265.79h9.52v-8.08Z"/>
<path class="cls-1" d="M251.68,289.85c-.66,3-2.82,4.58-6.5,4.58h-6.79a6.39,6.39,0,0,1-4.73-2,6.6,6.6,0,0,1-2-4.77v-6.71h.75v-.06H258.6V267.42A13.52,13.52,0,0,0,245.18,254h-13.5a14.26,14.26,0,0,0-2.09.17l-11.26,11.26a14.44,14.44,0,0,0-.16,2v20.22a14.11,14.11,0,0,0,.2,2.28l11,11a14.25,14.25,0,0,0,2.29.19h13.5q10.86,0,13.07-11.29Zm-20-22.43a6.76,6.76,0,0,1,6.71-6.71,6.54,6.54,0,0,1,4.81,2,6.46,6.46,0,0,1,2,4.73v6.8h-13.5Z"/>
<path class="cls-1" d="M201,257.71v-4.36c0-6.14,8.26-6.14,8.26-6.14V240.5h-6.1a12.85,12.85,0,0,0-3.19.4l-9.66,16.74v.07h-6.8v8.08h6.8v35.35H201V265.79h9.52v-8.08Z"/>
<path class="cls-1" d="M300.53,289.85q-1,4.57-6.49,4.58h-6.8a6.39,6.39,0,0,1-4.73-2,6.6,6.6,0,0,1-2-4.77v-6.71h.75v-.06h26.18V267.42A13.52,13.52,0,0,0,294,254H280.53a14.37,14.37,0,0,0-2.09.17l-11.26,11.26a14.45,14.45,0,0,0-.15,2v20.22a14.12,14.12,0,0,0,.19,2.28l11,11a14.22,14.22,0,0,0,2.28.19H294q10.86,0,13.07-11.29Zm-20-22.43a6.76,6.76,0,0,1,6.71-6.71,6.58,6.58,0,0,1,4.82,2,6.46,6.46,0,0,1,2,4.73v6.8H280.53Z"/>
<rect class="cls-2" x="17.18" y="11.86" width="332.91" height="320.99"/></svg>