<svg id="Layer_1" data-name="Layer 1" xmlns="http://www.w3.org/2000/svg" viewBox="0 0 195.71 47.36"><defs><style>.cls-1{fill:none;stroke:#0c24fb;stroke-miterlimit:10;stroke-width:0.99px;}</style></defs><title>FONT</title><path class="cls-1" d="M120,28a2.52,2.52,0,0,1-2.62,1.84,2.69,2.69,0,0,1-2-.85,2.73,2.73,0,0,1-.82-2V18.58a2.8,2.8,0,0,1,2.8-2.8,2.52,2.52,0,0,1,2.68,2h2.88Q122.32,13,117.37,13h-2.8a6,6,0,0,0-1.21.12l0,0L109,17.5a6.28,6.28,0,0,0-.1,1.08V27a5.58,5.58,0,0,0,.24,1.65l3.75,3.75a5.58,5.58,0,0,0,1.65.24h2.8q4.8,0,5.52-4.64Z"/><path class="cls-1" d="M184,28.62a5.64,5.64,0,0,0,.23-1.61V18.58a5.59,5.59,0,0,0-.12-1.17l-4.31-4.32a6.45,6.45,0,0,0-1.17-.11H173a6,6,0,0,0-1.05.09l0,0-4.52,4.53a5,5,0,0,0-.09,1V27a5.67,5.67,0,0,0,.17,1.38l4.08,4.08a5.69,5.69,0,0,0,1.39.18h5.63a5.73,5.73,0,0,0,1.57-.22ZM178.66,27a2.74,2.74,0,0,1-.83,2,2.71,2.71,0,0,1-2,.85,2.69,2.69,0,0,1-2-.85,2.73,2.73,0,0,1-.82-2V18.58a2.8,2.8,0,0,1,2.8-2.8,2.82,2.82,0,0,1,2.83,2.8Z"/><path class="cls-1" d="M94,13a6.39,6.39,0,0,0-2.37.41l-3.25,5.12s0,0,0,.07v-.06l-.07.11L88.34,13H82.71V32.65h5.63V21.41a2.7,2.7,0,0,1,.83-2,2.67,2.67,0,0,1,2-.82h5.63V13Z"/><path class="cls-1" d="M54.17,11.65A6.58,6.58,0,0,0,53,11.54H50a6.36,6.36,0,0,0-2.69.53l-.25.13-1.59,1.49v0A5.08,5.08,0,0,0,41,11.54H38.31L34.77,14.8l0-3.26H28.88V32.65h6V17.59a3,3,0,0,1,5.15-2.14,2.92,2.92,0,0,1,.9,2.14V32.65h6V17.59a3,3,0,0,1,3-3,2.85,2.85,0,0,1,2.1.9A2.9,2.9,0,0,1,53,17.59V32.65H59V17.59a6.58,6.58,0,0,0-.11-1.19Z"/><path class="cls-1" d="M164,16.79,159.2,12a6.4,6.4,0,0,0-1-.08h-3.29l-2.64,2.86s0,.07,0,.1v-.09l0,0V11.87h-5.9V32.65h5.92V17.82a3,3,0,0,1,6,0V32.65h5.93V17.82a5.92,5.92,0,0,0-.09-1Z"/><path class="cls-1" d="M99.92,32.65V14.78h5.4V32.65Z"/><path class="cls-1" d="M102.38,7.35A2.64,2.64,0,0,0,99.92,10h0a2.64,2.64,0,0,0,2.64,2.64h0a2.63,2.63,0,0,0,2.63-2.46Z"/><path class="cls-1" d="M76.4,27.93c-.27,1.28-1.18,1.92-2.71,1.92H70.86a2.69,2.69,0,0,1-2-.85,2.73,2.73,0,0,1-.82-2v-2.8h.31v0H79.29V18.58a5.63,5.63,0,0,0-5.6-5.6H68.06a4.94,4.94,0,0,0-.87.07l-4.7,4.69a5.71,5.71,0,0,0-.07.84V27a5.8,5.8,0,0,0,.08.95l4.6,4.6a6,6,0,0,0,1,.09h5.63c3,0,4.84-1.58,5.46-4.72Zm-8.34-9.35a2.8,2.8,0,0,1,2.8-2.8,2.72,2.72,0,0,1,2,.82,2.67,2.67,0,0,1,.83,2v2.83H68.06Z"/><path class="cls-1" d="M23.57,14.63A5.39,5.39,0,0,0,19.62,13H16.79c-3.31,0-5.19,1.86-5.64,5.6H14c.2-1.87,1.13-2.8,2.8-2.8a2.76,2.76,0,0,1,2,.82,2.7,2.7,0,0,1,.82,2v2.83H14A5.69,5.69,0,0,0,8.51,25.7l3.88,6.72a5.57,5.57,0,0,0,1.6.23h2.8c1.66,0,2.61-.94,2.83-2.8v2.8h5.6V18.58A5.39,5.39,0,0,0,23.57,14.63ZM18.8,29a2.81,2.81,0,0,1-1.93.84A2.67,2.67,0,0,1,14.81,29,2.73,2.73,0,0,1,14,27a2.69,2.69,0,0,1,.82-2,2.72,2.72,0,0,1,2-.83h0a2.8,2.8,0,0,1,2.8,2.8A2.73,2.73,0,0,1,18.8,29Z"/><path class="cls-1" d="M139.76,14.63A5.41,5.41,0,0,0,135.81,13H133c-3.3,0-5.18,1.86-5.63,5.6h2.83c.21-1.87,1.14-2.8,2.8-2.8a2.82,2.82,0,0,1,2.84,2.8v2.83h-5.64a5.43,5.43,0,0,0-4,1.65,5.55,5.55,0,0,0-1.52,2.64l3.88,6.72a5.63,5.63,0,0,0,1.6.23H133c1.67,0,2.61-.94,2.84-2.8v2.8h5.6V18.58A5.39,5.39,0,0,0,139.76,14.63ZM135,29a2.78,2.78,0,0,1-1.92.84A2.65,2.65,0,0,1,131,29a2.74,2.74,0,0,1-.83-2,2.83,2.83,0,0,1,2.8-2.8h0a2.8,2.8,0,0,1,2.8,2.8A2.74,2.74,0,0,1,135,29Z"/></svg>