<svg id="Layer_1" data-name="Layer 1" xmlns="http://www.w3.org/2000/svg" viewBox="0 0 166.13 86.01"><defs><style>.cls-1{fill:#0c24fb;}</style></defs><title>FONT</title><path class="cls-1" d="M68.25,20.88V49.27a5.56,5.56,0,0,1-1.67,4A5.48,5.48,0,0,1,62.52,55a5.37,5.37,0,0,1-4-1.71,5.52,5.52,0,0,1-1.67-4V20.88H45.46V45.44l8.59,14.88a11.69,11.69,0,0,0,2.81.34h5.66c3.37,0,5.28-1.88,5.73-5.66v5.66H79.58V20.88Z"/><path class="cls-1" d="M110.71,60.57l9.8-9.8a12.32,12.32,0,0,0,.1-1.5V32.21a11.36,11.36,0,0,0-.14-1.78L111.07,21a11.56,11.56,0,0,0-1.78-.14h-5.74a5.85,5.85,0,0,0-4.23,1.4,5.72,5.72,0,0,0-1.43,4.26V20.88H86.49V72.06h11.4V60.66h11.4A13.2,13.2,0,0,0,110.71,60.57ZM103.55,55a5.67,5.67,0,0,1-5.66-5.66V32.21a5.7,5.7,0,0,1,11.4,0V49.27A5.72,5.72,0,0,1,103.55,55Z"/><path class="cls-1" d="M155.89,50.73h0a11.83,11.83,0,0,0,.1-1.47,12.73,12.73,0,0,0-1-5.12q-1-2.38-7.78-6-8.25-4.43-8.25-6.89a4.2,4.2,0,0,1,1.5-3.51,7.11,7.11,0,0,1,4.5-1.2q4.63,0,5.39,5.67H156q-.69-11.34-11.4-11.33h-5.66a12,12,0,0,0-2.19.2l-9,9a11.94,11.94,0,0,0-.2,2.18,12.42,12.42,0,0,0,1.06,5.12q1,2.4,7.81,6,8.26,4.44,8.26,6.82a4.29,4.29,0,0,1-1.5,3.58,7.25,7.25,0,0,1-4.57,1.2c-3.1,0-4.87-1.91-5.33-5.73h-5.73q0,11.38,11.4,11.39h5.66a14,14,0,0,0,1.46-.09Z"/><path class="cls-1" d="M32.59,51.28A5.07,5.07,0,0,1,27.29,55a5.37,5.37,0,0,1-4-1.71,5.53,5.53,0,0,1-1.68-4V32.21a5.72,5.72,0,0,1,5.67-5.67,5.12,5.12,0,0,1,5.43,4.14h5.82q-1.23-9.8-11.25-9.8H21.62a11.47,11.47,0,0,0-2.44.26l.07.07L10.43,30a11.86,11.86,0,0,0-.2,2.18V49.27a11.7,11.7,0,0,0,.47,3.33l7.58,7.58a11.48,11.48,0,0,0,3.34.48h5.67c6.48,0,10.19-3.13,11.17-9.38Z"/></svg>