<svg id="Layer_1" data-name="Layer 1" xmlns="http://www.w3.org/2000/svg" viewBox="0 0 195.71 47.36"><defs><style>.cls-1{fill:none;stroke:#0c24fb;stroke-miterlimit:10;stroke-width:0.99px;}</style></defs><title>FONT</title><path class="cls-1" d="M56.12,32.46l4.82-4.82A6,6,0,0,0,61,26.9V18.51a6.13,6.13,0,0,0-.07-.87L56.3,13a5.14,5.14,0,0,0-.88-.08H52.6a2.85,2.85,0,0,0-2.08.69,2.82,2.82,0,0,0-.7,2.1V12.94h-5.6V38.1h5.6V32.5h5.6C55.66,32.5,55.89,32.48,56.12,32.46ZM52.6,29.72a2.78,2.78,0,0,1-2.78-2.79V18.51a2.8,2.8,0,0,1,2.78-2.78,2.72,2.72,0,0,1,2,.82,2.67,2.67,0,0,1,.82,2V26.9a2.72,2.72,0,0,1-.82,2A2.76,2.76,0,0,1,52.6,29.72Z"/><path class="cls-1" d="M187.41,28.5a5.57,5.57,0,0,0,.23-1.6V18.51a6.34,6.34,0,0,0-.12-1.16l-4.29-4.29a6.34,6.34,0,0,0-1.16-.12h-5.61a5.8,5.8,0,0,0-1,.1l0,0-4.5,4.5a4.94,4.94,0,0,0-.09,1V26.9a5.53,5.53,0,0,0,.17,1.37l4.06,4.06a5.59,5.59,0,0,0,1.37.17h5.61a5.3,5.3,0,0,0,1.56-.22Zm-5.34-1.6a2.74,2.74,0,0,1-.83,2,2.67,2.67,0,0,1-2,.84,2.63,2.63,0,0,1-2-.84,2.74,2.74,0,0,1-.83-2V18.51a2.81,2.81,0,0,1,5.61,0Z"/><path class="cls-1" d="M100.42,26.93a9.31,9.31,0,0,0,.85-4v-10H95.7v14a2.73,2.73,0,0,1-.82,2,2.68,2.68,0,0,1-2,.84H90.1V12.94H84.5V32.5h7.24a9.54,9.54,0,0,0,2.71-.37Z"/><path class="cls-1" d="M166.93,16.74l-4.81-4.82a6.27,6.27,0,0,0-1-.08h-3.28l-2.62,2.84s0,.07,0,.11v-.09l0,0V11.84h-5.87V32.5h5.89V17.76a2.95,2.95,0,0,1,5-2.09,2.83,2.83,0,0,1,.88,2.09V32.5H167V17.76a5.72,5.72,0,0,0-.09-1Z"/><path class="cls-1" d="M139.93,32.5V14.74h5.37V32.5Z"/><path class="cls-1" d="M142.37,7.35A2.62,2.62,0,0,0,139.93,10h0a2.62,2.62,0,0,0,2.62,2.62h0a2.63,2.63,0,0,0,2.62-2.44Z"/><path class="cls-1" d="M39,14.59A5.33,5.33,0,0,0,35,12.94H32.21q-4.93,0-5.6,5.57h2.82c.2-1.85,1.12-2.78,2.78-2.78A2.8,2.8,0,0,1,35,18.51v2.82h-5.6A5.65,5.65,0,0,0,24,25.6l3.85,6.68a5.62,5.62,0,0,0,1.6.22h2.78c1.65,0,2.59-.93,2.82-2.78V32.5H40.6v-14A5.33,5.33,0,0,0,39,14.59ZM34.21,28.88a2.78,2.78,0,0,1-1.92.84,2.65,2.65,0,0,1-2-.84,2.73,2.73,0,0,1-.82-2,2.8,2.8,0,0,1,2.78-2.78h0a2.79,2.79,0,0,1,2,4.76Z"/><path class="cls-1" d="M19.07,27.89a2.5,2.5,0,0,1-2.61,1.83,2.65,2.65,0,0,1-2-.84,2.73,2.73,0,0,1-.82-2V18.51a2.8,2.8,0,0,1,2.78-2.78,2.52,2.52,0,0,1,2.68,2H22c-.41-3.21-2.25-4.82-5.54-4.82H13.68a5.81,5.81,0,0,0-1.2.13l0,0L8.18,17.44a5.39,5.39,0,0,0-.1,1.07V26.9a5.85,5.85,0,0,0,.23,1.64L12,32.26a5.51,5.51,0,0,0,1.64.24h2.78q4.78,0,5.5-4.61Z"/><path class="cls-1" d="M115.66,27.89a2.5,2.5,0,0,1-2.61,1.83,2.65,2.65,0,0,1-2-.84,2.73,2.73,0,0,1-.82-2V18.51a2.8,2.8,0,0,1,2.78-2.78,2.52,2.52,0,0,1,2.67,2h2.86q-.6-4.82-5.53-4.82h-2.78a6,6,0,0,0-1.21.13l0,0-4.34,4.33a6.26,6.26,0,0,0-.09,1.07V26.9a5.51,5.51,0,0,0,.23,1.64l3.73,3.72a5.47,5.47,0,0,0,1.64.24h2.78c3.19,0,5-1.54,5.49-4.61Z"/><path class="cls-1" d="M133.4,27.89a2.5,2.5,0,0,1-2.61,1.83,2.65,2.65,0,0,1-2-.84,2.73,2.73,0,0,1-.82-2V18.51a2.8,2.8,0,0,1,2.78-2.78,2.52,2.52,0,0,1,2.67,2h2.86q-.6-4.82-5.53-4.82H128a5.81,5.81,0,0,0-1.2.13l0,0-4.33,4.33a5.39,5.39,0,0,0-.1,1.07V26.9a5.51,5.51,0,0,0,.23,1.64l3.73,3.72a5.47,5.47,0,0,0,1.64.24h2.78c3.19,0,5-1.54,5.49-4.61Z"/><path class="cls-1" d="M75.9,32.46l4.82-4.82a6,6,0,0,0,0-.74V18.51a6.13,6.13,0,0,0-.07-.87L76.07,13a4.94,4.94,0,0,0-.87-.08H72.38a2.85,2.85,0,0,0-2.08.69,2.82,2.82,0,0,0-.7,2.1V12.94H64V38.1H69.6V32.5h5.6C75.44,32.5,75.67,32.48,75.9,32.46Zm-3.52-2.74a2.78,2.78,0,0,1-2.78-2.79V18.51a2.8,2.8,0,0,1,2.78-2.78,2.8,2.8,0,0,1,2.82,2.78V26.9a2.8,2.8,0,0,1-2.82,2.82Z"/></svg>