<svg id="Layer_1" data-name="Layer 1" xmlns="http://www.w3.org/2000/svg" viewBox="0 0 195.71 47.36"><defs><style>.cls-1{fill:none;stroke:#0c24fb;stroke-miterlimit:10;stroke-width:0.99px;}.cls-2{fill:#0c24fb;}</style></defs><title>FONT</title><path class="cls-1" d="M57.82,32.6l4.8-4.81a5.87,5.87,0,0,0,.05-.74V18.69a4.94,4.94,0,0,0-.07-.87L58,13.21a4.94,4.94,0,0,0-.87-.07H54.31a2.85,2.85,0,0,0-2.08.68,2.85,2.85,0,0,0-.7,2.09V13.14H45.94V38.23h5.59V32.64h5.59C57.36,32.64,57.59,32.62,57.82,32.6Zm-3.51-2.74a2.78,2.78,0,0,1-2.78-2.77v-8.4a2.67,2.67,0,0,1,.82-2,2.71,2.71,0,0,1,2-.82,2.74,2.74,0,0,1,2,.82,2.67,2.67,0,0,1,.82,2v8.36a2.8,2.8,0,0,1-2.81,2.81Z"/><path class="cls-1" d="M155.32,28.66a5.62,5.62,0,0,0,.22-1.6V18.69a5.4,5.4,0,0,0-.12-1.15l-4.28-4.28a5.4,5.4,0,0,0-1.15-.12H144.4a5.72,5.72,0,0,0-1,.09l0,0-4.49,4.49a5,5,0,0,0-.09,1v8.37a5.59,5.59,0,0,0,.17,1.37l4.05,4a6.12,6.12,0,0,0,1.37.17H150a5.71,5.71,0,0,0,1.56-.22ZM150,27.06a2.75,2.75,0,0,1-.82,2,2.68,2.68,0,0,1-2,.84,2.65,2.65,0,0,1-2-.84,2.71,2.71,0,0,1-.82-2V18.69a2.8,2.8,0,0,1,2.78-2.77A2.8,2.8,0,0,1,150,18.69Z"/><path class="cls-1" d="M78.23,13.14a6.32,6.32,0,0,0-2.35.41l-3.23,5.07a.15.15,0,0,1,0,.07v-.05l-.06.11.06-5.61H67.06V32.65h5.58V21.5a2.74,2.74,0,0,1,.82-2,2.71,2.71,0,0,1,2-.82H81V13.14Z"/><path class="cls-1" d="M21.88,28c-.27,1.27-1.17,1.9-2.69,1.9H16.38a2.65,2.65,0,0,1-2-.84,2.75,2.75,0,0,1-.82-2V24.28h.31v0H24.75V18.69a5.6,5.6,0,0,0-5.56-5.55H13.6a6.11,6.11,0,0,0-.86.07L8.08,17.87a5.55,5.55,0,0,0-.06.82v8.37A5.77,5.77,0,0,0,8.1,28l4.56,4.56a4.91,4.91,0,0,0,.94.09h5.59c3,0,4.8-1.57,5.41-4.68ZM13.6,18.69a2.79,2.79,0,0,1,4.77-2,2.65,2.65,0,0,1,.82,2V21.5H13.6Z"/><path class="cls-1" d="M97.46,28c-.27,1.27-1.16,1.9-2.69,1.9H92A2.63,2.63,0,0,1,90,29a2.71,2.71,0,0,1-.82-2V24.28h.31v0h10.83V18.69a5.6,5.6,0,0,0-5.56-5.55H89.19a6.13,6.13,0,0,0-.87.07l-4.66,4.66a7.36,7.36,0,0,0-.06.82v8.37a5.77,5.77,0,0,0,.08.94l4.56,4.56a4.94,4.94,0,0,0,1,.09h5.58c3,0,4.8-1.57,5.41-4.68Zm-8.27-9.28A2.8,2.8,0,0,1,92,15.92a2.71,2.71,0,0,1,2,.82,2.67,2.67,0,0,1,.81,2V21.5H89.19Z"/><path class="cls-2" d="M42.23,28.48l.48-.47,0-.17a6.66,6.66,0,0,0,.05-.78,7,7,0,0,0-.54-2.71c-.39-.9-1.67-1.92-4-3.18-3.51-1.89-3.79-2.73-3.79-2.94A1.59,1.59,0,0,1,35,16.89a3,3,0,0,1,1.9-.48c.79,0,1.87.25,2.15,2.35l.06.43h3.74l0-.53c-.24-3.93-2.34-6-6.09-6H33.92a6.45,6.45,0,0,0-1.17.11l-.15,0L28,17.41l0,.15a6.45,6.45,0,0,0-.11,1.17,6.71,6.71,0,0,0,.56,2.71c.4.9,1.69,1.91,4,3.18,3.61,1.93,3.79,2.76,3.79,2.91a1.65,1.65,0,0,1-.55,1.37,3.18,3.18,0,0,1-1.93.47c-.79,0-1.87-.24-2.12-2.37l-.05-.44H27.83v.5c0,4,2.11,6.08,6.09,6.08h2.77a6.53,6.53,0,0,0,.78,0l.17,0,4.59-4.59Zm-.47-.93-4.58,4.58-.49,0H33.92c-3.31,0-4.93-1.46-5.08-4.6h1.87c.43,2.31,1.87,2.81,3,2.81a4,4,0,0,0,2.55-.69,2.6,2.6,0,0,0,.92-2.14c0-.69-.49-1.73-4.31-3.79-2.61-1.4-3.4-2.24-3.61-2.7a5.79,5.79,0,0,1-.48-2.31,6,6,0,0,1,.07-.84l4.19-4.19a5.73,5.73,0,0,1,.84-.06h2.77c3.05,0,4.71,1.49,5.05,4.56H39.93c-.46-2.28-1.9-2.78-3.07-2.78a4,4,0,0,0-2.52.69,2.57,2.57,0,0,0-.92,2.12c0,1,1.33,2.21,4.31,3.81,2.61,1.4,3.4,2.24,3.59,2.7a5.82,5.82,0,0,1,.46,2.32A4,4,0,0,1,41.76,27.55Z"/><path class="cls-2" d="M117.85,28.48l.47-.47,0-.17a6.66,6.66,0,0,0,0-.78,6.83,6.83,0,0,0-.54-2.71c-.39-.9-1.67-1.92-4-3.18-3.51-1.89-3.79-2.73-3.79-2.94a1.59,1.59,0,0,1,.55-1.34,3,3,0,0,1,1.9-.48c.79,0,1.87.25,2.15,2.35l.06.43h3.74l0-.53c-.24-3.93-2.34-6-6.08-6h-2.78a6.45,6.45,0,0,0-1.17.11l-.15,0-4.63,4.63,0,.15a6.45,6.45,0,0,0-.11,1.17,6.71,6.71,0,0,0,.56,2.71c.41.9,1.69,1.91,4.06,3.18,3.6,1.93,3.78,2.76,3.78,2.91a1.65,1.65,0,0,1-.55,1.37,3.14,3.14,0,0,1-1.93.47c-.79,0-1.86-.24-2.12-2.37l0-.44h-3.75v.5c0,4,2.11,6.08,6.09,6.08h2.78a6.49,6.49,0,0,0,.77,0l.17,0,4.59-4.59Zm-.48-.93-4.58,4.58-.48,0h-2.78c-3.31,0-4.93-1.46-5.08-4.6h1.87c.43,2.31,1.87,2.81,3,2.81a4,4,0,0,0,2.55-.69,2.6,2.6,0,0,0,.93-2.14c0-.69-.5-1.73-4.32-3.79-2.61-1.4-3.4-2.24-3.61-2.7a5.78,5.78,0,0,1-.47-2.31,5.93,5.93,0,0,1,.06-.84l4.19-4.19a5.83,5.83,0,0,1,.84-.06h2.78c3,0,4.7,1.49,5,4.56h-1.81c-.46-2.28-1.9-2.78-3.07-2.78a4,4,0,0,0-2.51.69,2.55,2.55,0,0,0-.93,2.12c0,1,1.33,2.21,4.31,3.81,2.62,1.4,3.4,2.24,3.59,2.7a5.83,5.83,0,0,1,.47,2.32A4,4,0,0,1,117.37,27.55Z"/><path class="cls-2" d="M134.88,28.48l.47-.47,0-.17a6.66,6.66,0,0,0,0-.78,6.83,6.83,0,0,0-.54-2.71c-.39-.9-1.67-1.92-4-3.18-3.52-1.89-3.79-2.73-3.79-2.94a1.59,1.59,0,0,1,.55-1.34,3,3,0,0,1,1.9-.48c.79,0,1.87.25,2.15,2.35l.06.43h3.73l0-.53c-.23-3.93-2.34-6-6.08-6h-2.78a6.34,6.34,0,0,0-1.16.11l-.15,0-4.64,4.63,0,.15a5.66,5.66,0,0,0-.11,1.17,6.71,6.71,0,0,0,.56,2.71c.4.9,1.69,1.91,4,3.18,3.6,1.93,3.79,2.76,3.79,2.91a1.65,1.65,0,0,1-.55,1.37,3.18,3.18,0,0,1-1.93.47c-.79,0-1.87-.24-2.12-2.37l0-.44h-3.75v.5c0,4,2.1,6.08,6.08,6.08h2.78a6.66,6.66,0,0,0,.78,0l.17,0,4.59-4.59Zm-.47-.93-4.58,4.58-.49,0h-2.78c-3.3,0-4.93-1.46-5.08-4.6h1.88c.43,2.31,1.87,2.81,3,2.81a4,4,0,0,0,2.55-.69,2.6,2.6,0,0,0,.92-2.14c0-.69-.49-1.73-4.31-3.79-2.62-1.4-3.41-2.24-3.61-2.7a5.62,5.62,0,0,1-.48-2.31,4.76,4.76,0,0,1,.07-.84l4.19-4.19a5.69,5.69,0,0,1,.83-.06h2.78c3,0,4.71,1.49,5,4.56h-1.82c-.45-2.28-1.9-2.78-3.06-2.78a4,4,0,0,0-2.52.69,2.57,2.57,0,0,0-.92,2.12c0,1,1.33,2.21,4.31,3.81,2.61,1.4,3.39,2.24,3.59,2.7a5.82,5.82,0,0,1,.46,2.32C134.43,27.22,134.42,27.39,134.41,27.55Z"/></svg>