<svg id="Layer_1" data-name="Layer 1" xmlns="http://www.w3.org/2000/svg" viewBox="0 0 1224 792">
<defs>
<style>
@keyframes spin {
    0% {
      transform: rotate(0deg);
    }
    100% {
      transform: rotate(360deg);
    }
  }

@keyframes fill{
    from {
      <!-- left:-170%; -->
      fill:#0c24fb;
    }
    to{
      <!-- left:-30%; -->
      fill:none;
      stroke:#0c24fb;
      stroke-miterlimit:10;
      stroke-width:1.3px;
      
    }
}

.cls-1{
   fill:none;
   stroke:#0c24fb;
   stroke-miterlimit:10;
   stroke-width:1.3px;
   transform-origin: 20%;
   animation: spin 2s infinite; 
}

.cls-2{
   stroke:#0c24fb;
   fill:none;
   stroke-miterlimit:10;
   stroke-width:1.3px;
   z-index: 2;
   animation: fill 5s infinite;
}

.cls-3{
   stroke:#0c24fb;
   fill:none;
   stroke-miterlimit:10;
   stroke-width:1.3px;
   z-index: 2;
   animation: fill 2s infinite;
}



</style>
</defs>
<title>FONT</title>
<!-- * -->
<path class="cls-1" d="M328.79,298l17-3.46a6.64,6.64,0,0,1,7.83,5.18l0,.1a6.64,6.64,0,0,1-5.18,7.83l-17,3.46,11.48,13a6.63,6.63,0,0,1-.55,9.33h0a6.64,6.64,0,0,1-9.39-.54l-11.55-13L316,336.41a6.65,6.65,0,0,1-8.43,4.18h0a6.64,6.64,0,0,1-4.17-8.38l5.47-16.52-17,3.46a6.63,6.63,0,0,1-7.83-5.18v0a6.63,6.63,0,0,1,5.18-7.82l17-3.47-11.47-13a6.64,6.64,0,0,1,.56-9.35l0,0a6.64,6.64,0,0,1,9.39.57l11.5,13,5.55-16.49a6.64,6.64,0,0,1,8.43-4.17h0a6.63,6.63,0,0,1,4.15,8.38Z"/>

<!--i-->
<path class="cls-3" d="M609,445.85v-139h30.94v139Z"/>
<path class="cls-2" d="M662.34,445.85v-139h30.94v139Z"/>

<!-- h -->
<path class="cls-3" d="M443.18,337.93c-.78-.05-1.56-.1-2.36-.1H425.25q-6.66,0-10.56,3.79t-4.82,11.59V306.88H380.49v139h29.38V368.59a15.5,15.5,0,0,1,15.38-15.38,15,15,0,0,1,11,4.54,14.81,14.81,0,0,1,4.54,10.84v77.26h30.76V368.59c0-.8-.06-1.58-.11-2.36Z"/>
<!--o-->
<path class="cls-3" d="M807.09,423.77a31,31,0,0,0,1.25-8.86V368.59a31.08,31.08,0,0,0-.65-6.4L784,338.47a31.79,31.79,0,0,0-6.4-.64H746.64a32.48,32.48,0,0,0-5.73.51l.11.11-24.87,24.87a31.31,31.31,0,0,0-.46,5.27v46.32a31.37,31.37,0,0,0,.93,7.59L739,444.91a31,31,0,0,0,7.61.94h30.94a30.45,30.45,0,0,0,8.63-1.21Zm-29.51-8.86A15.07,15.07,0,0,1,773,425.84a14.86,14.86,0,0,1-11,4.64,14.63,14.63,0,0,1-10.84-4.64,15.07,15.07,0,0,1-4.54-10.93V368.59A15.5,15.5,0,0,1,762,353.21a15,15,0,0,1,11,4.54,14.77,14.77,0,0,1,4.54,10.84Z"/>

<path class="cls-2" d="M570.7,420q-2.26,10.5-14.88,10.5H540.25a14.65,14.65,0,0,1-10.84-4.63,15.11,15.11,0,0,1-4.54-10.93V399.53h1.73v-.13h60V368.59a31,31,0,0,0-30.76-30.76h-31a32.46,32.46,0,0,0-4.78.38L494.29,364a31.12,31.12,0,0,0-.36,4.58v46.32a33,33,0,0,0,.44,5.23l25.27,25.27a32,32,0,0,0,5.23.44h31q24.9,0,30-25.88Zm-45.83-51.38a15.5,15.5,0,0,1,15.38-15.38,15,15,0,0,1,11,4.54,14.81,14.81,0,0,1,4.54,10.84v15.56h-31Z"/>
<rect class="cls-2" x="836.7" y="326.61" width="26.7" height="80.02"/><path class="cls-2" d="M845.53,445.85l17.06-17.06A13.32,13.32,0,0,0,850.08,420H850a13.31,13.31,0,0,0-13.32,13.31h0A13.29,13.29,0,0,0,845.53,445.85Z"/>

</svg>