<svg id="Layer_1" data-name="Layer 1" xmlns="http://www.w3.org/2000/svg" viewBox="0 0 92.19 47.36"><defs><style>.cls-1{fill:none;stroke:#0c24fb;stroke-miterlimit:10;stroke-width:0.99px;}</style></defs><title>FONT</title><path class="cls-1" d="M10.89,32.65V7.51h5.59V32.65Z"/><path class="cls-1" d="M78.43,28c-.28,1.27-1.17,1.9-2.7,1.9H72.92A2.68,2.68,0,0,1,71,29a2.73,2.73,0,0,1-.82-2V24.27h.31v0H81.3V18.67a5.6,5.6,0,0,0-5.57-5.56H70.14a6.15,6.15,0,0,0-.87.06l-4.66,4.67a5.69,5.69,0,0,0-.07.83v8.38a5.77,5.77,0,0,0,.08.94l4.57,4.57a4.94,4.94,0,0,0,1,.09h5.59c3,0,4.81-1.57,5.42-4.69Zm-8.29-9.29a2.8,2.8,0,0,1,5.59,0v2.81H70.14Z"/><polygon class="cls-1" points="45.62 27.16 45.62 19.36 45.62 15.92 48.42 15.92 48.42 12.86 45.62 12.86 45.62 7.26 45.6 7.26 45.6 7.26 40.04 7.26 40.04 7.26 40.02 7.26 40.02 12.86 37.22 12.86 37.22 15.92 40.02 15.92 40.02 32.4 45.6 32.4 45.6 32.4 45.62 32.4 45.62 27.16"/><path class="cls-1" d="M33.57,14.75a5.32,5.32,0,0,0-3.92-1.64H26.84q-4.93,0-5.6,5.56h2.81c.2-1.86,1.13-2.78,2.79-2.78a2.7,2.7,0,0,1,2,.82,2.67,2.67,0,0,1,.82,2v2.81h-5.6a5.71,5.71,0,0,0-5.44,4.27l3.85,6.67a5.61,5.61,0,0,0,1.59.23h2.79c1.65,0,2.59-.93,2.81-2.79v2.79h5.56v-14A5.32,5.32,0,0,0,33.57,14.75ZM28.83,29a2.81,2.81,0,0,1-1.91.83A2.66,2.66,0,0,1,24.87,29a2.77,2.77,0,0,1-.82-2,2.8,2.8,0,0,1,2.79-2.78h0a2.77,2.77,0,0,1,2.78,2.78A2.73,2.73,0,0,1,28.83,29Z"/><polygon class="cls-1" points="59.14 27.16 59.14 19.36 59.14 15.92 61.94 15.92 61.94 12.86 59.14 12.86 59.14 7.26 59.12 7.26 59.12 7.26 53.56 7.26 53.56 7.26 53.54 7.26 53.54 12.86 50.74 12.86 50.74 15.92 53.54 15.92 53.54 32.4 59.12 32.4 59.12 32.4 59.14 32.4 59.14 27.16"/></svg>