<svg id="Layer_1" data-name="Layer 1" xmlns="http://www.w3.org/2000/svg" viewBox="0 0 196.15 47.36"><defs><style>.cls-1{fill:none;stroke:#0c24fb;stroke-miterlimit:10;stroke-width:0.99px;}</style></defs><title>FONT</title><path class="cls-1" d="M117.64,12.92l-.43,0h-2.84a2.62,2.62,0,0,0-1.93.7,3.35,3.35,0,0,0-.88,2.11V7.25h-5.37v25.4h5.37V18.52a2.83,2.83,0,0,1,2.81-2.81,2.74,2.74,0,0,1,2,.83,2.7,2.7,0,0,1,.83,2V32.65h5.62V18.52c0-.14,0-.29,0-.43Z"/><path class="cls-1" d="M102.52,27.08a9.42,9.42,0,0,0,.89-4.09V12.9H97.76V27a2.78,2.78,0,0,1-.83,2,2.71,2.71,0,0,1-2,.84H92.1V12.9H86.48V27a2.78,2.78,0,0,1-.83,2,2.75,2.75,0,0,1-2,.84H80.82V12.9H75.17V32.65h7.31a10.8,10.8,0,0,0,2-.18l2.11-1.84-.07,1.78v.24h7.28a10,10,0,0,0,2.83-.4Z"/><path class="cls-1" d="M127.53,32.65V14.71H133V32.65Z"/><path class="cls-1" d="M130,7.26a2.64,2.64,0,0,0-2.47,2.64h0a2.65,2.65,0,0,0,2.65,2.65h0a2.65,2.65,0,0,0,2.64-2.47Z"/><path class="cls-1" d="M162.54,27.91c-.27,1.28-1.18,1.92-2.72,1.92H157a2.68,2.68,0,0,1-2-.84,2.74,2.74,0,0,1-.83-2V24.18h.31v0h11V18.52a5.67,5.67,0,0,0-5.62-5.62h-5.65a6.15,6.15,0,0,0-.88.07l-4.72,4.72a7.54,7.54,0,0,0-.06.83V27a6,6,0,0,0,.08,1l4.62,4.61a6,6,0,0,0,1,.09h5.65q4.55,0,5.48-4.74Zm-8.37-9.39A2.83,2.83,0,0,1,157,15.71a2.83,2.83,0,0,1,2.84,2.81v2.85h-5.65Z"/><polygon class="cls-1" points="144.14 27.35 144.14 19.47 144.14 16 146.97 16 146.97 12.9 144.14 12.9 144.14 7.25 144.13 7.25 144.13 7.25 138.5 7.25 138.5 7.25 138.49 7.25 138.49 12.9 135.66 12.9 135.66 16 138.49 16 138.49 32.65 144.12 32.65 144.13 32.65 144.14 32.65 144.14 27.35"/><path class="cls-1" d="M23.07,32.65V7.25h5.66v25.4Z"/><path class="cls-1" d="M15.34,14.46V12.63c0-2.57,3.46-2.57,3.46-2.57V7.25H16.25a5.79,5.79,0,0,0-1.34.16l-4.05,7v0H8v3.38h2.84V32.65h4.48V17.84h4V14.46Z"/><polygon class="cls-1" points="60.5 27.35 60.5 19.47 60.5 16 63.33 16 63.33 12.9 60.5 12.9 60.5 7.25 60.48 7.25 60.48 7.25 54.86 7.25 54.86 7.25 54.84 7.25 54.84 12.9 52.02 12.9 52.02 16 54.84 16 54.84 32.65 60.48 32.65 60.48 32.65 60.5 32.65 60.5 27.35"/><path class="cls-1" d="M47,14.56a5.41,5.41,0,0,0-4-1.66H40.22c-3.32,0-5.21,1.88-5.66,5.62h2.85c.2-1.87,1.14-2.81,2.81-2.81a2.83,2.83,0,0,1,2.84,2.81v2.85H37.41a5.76,5.76,0,0,0-5.51,4.31l3.9,6.74a5.64,5.64,0,0,0,1.61.23h2.81c1.67,0,2.61-.94,2.84-2.82v2.82h5.62V18.52A5.4,5.4,0,0,0,47,14.56ZM42.23,29a2.81,2.81,0,0,1-1.93.84A2.69,2.69,0,0,1,38.23,29a2.77,2.77,0,0,1-.82-2,2.7,2.7,0,0,1,.82-2,2.74,2.74,0,0,1,2-.83h0A2.81,2.81,0,0,1,43.06,27,2.78,2.78,0,0,1,42.23,29Z"/></svg>